<svg width="507" height="95" viewBox="0 0 507 95" fill="none" xmlns="http://www.w3.org/2000/svg">
<path d="M79.5962 0V93.6736H60.4164L23.1984 39.61H22.6048V93.6736H0V0H19.4538L56.2608 53.9721H57.0371V0H79.5962Z" fill="black"/>
<path d="M107.796 94.8628C103.321 94.8628 99.3482 94.1157 95.8776 92.6216C92.4374 91.0969 89.7126 88.81 87.7033 85.7607C85.7245 82.6809 84.735 78.8236 84.735 74.1887C84.735 70.2857 85.42 66.9925 86.79 64.3091C88.16 61.6257 90.0475 59.4455 92.4526 57.7684C94.8577 56.0913 97.6281 54.8259 100.764 53.9721C103.9 53.0878 107.248 52.4932 110.81 52.1882C114.799 51.8223 118.01 51.4412 120.446 51.0448C122.882 50.6179 124.647 50.0233 125.743 49.2609C126.87 48.4681 127.433 47.3552 127.433 45.922V45.6933C127.433 43.3454 126.626 41.5311 125.013 40.2504C123.399 38.9697 121.222 38.3293 118.482 38.3293C115.529 38.3293 113.155 38.9697 111.358 40.2504C109.562 41.5311 108.421 43.2996 107.933 45.5561L87.338 44.8243C87.9469 40.5553 89.5148 36.7437 92.0416 33.3895C94.5989 30.0048 98.1 27.352 102.545 25.4309C107.02 23.4794 112.394 22.5036 118.665 22.5036C123.14 22.5036 127.265 23.0372 131.041 24.1045C134.816 25.1412 138.104 26.6659 140.904 28.6784C143.705 30.6604 145.867 33.0998 147.389 35.9966C148.942 38.8934 149.718 42.2019 149.718 45.922V93.6736H128.712V83.8854H128.164C126.915 86.2638 125.317 88.2764 123.369 89.923C121.451 91.5696 119.183 92.8045 116.564 93.6278C113.977 94.4511 111.054 94.8628 107.796 94.8628ZM114.692 80.2263C117.097 80.2263 119.259 79.7384 121.177 78.7626C123.125 77.7869 124.678 76.4452 125.835 74.7376C126.991 72.9995 127.57 70.987 127.57 68.7V62.0221C126.931 62.3576 126.154 62.6625 125.241 62.9369C124.358 63.2114 123.384 63.4705 122.318 63.7145C121.253 63.9584 120.157 64.1719 119.03 64.3548C117.904 64.5378 116.823 64.7055 115.788 64.858C113.687 65.1934 111.891 65.7118 110.399 66.4131C108.938 67.1144 107.812 68.0292 107.02 69.1574C106.259 70.2552 105.878 71.5664 105.878 73.091C105.878 75.4084 106.7 77.177 108.344 78.3967C110.019 79.6164 112.135 80.2263 114.692 80.2263Z" fill="black"/>
<path d="M177.724 75.2407L177.816 48.5749H180.921L200.649 23.4184H225.948L196.63 59.4608H190.739L177.724 75.2407ZM157.585 93.6736V0H179.916V93.6736H157.585ZM201.151 93.6736L182.793 64.4921L197.498 48.6206L226.952 93.6736H201.151Z" fill="black"/>
<path d="M258.369 95C251.032 95 244.7 93.5516 239.372 90.6548C234.075 87.7275 229.995 83.5652 227.133 78.168C224.302 72.7403 222.886 66.2911 222.886 58.8204C222.886 51.5631 224.317 45.2207 227.179 39.793C230.041 34.3348 234.075 30.0963 239.28 27.0775C244.486 24.0282 250.621 22.5036 257.684 22.5036C262.677 22.5036 267.243 23.2812 271.384 24.8363C275.524 26.3914 279.101 28.6936 282.115 31.7429C285.129 34.7922 287.474 38.558 289.148 43.0404C290.822 47.4924 291.66 52.5999 291.66 58.363V63.9432H230.695V50.9533H270.881C270.851 48.5749 270.288 46.4556 269.192 44.5956C268.096 42.7355 266.589 41.2871 264.671 40.2504C262.783 39.1831 260.607 38.6495 258.141 38.6495C255.644 38.6495 253.407 39.2136 251.428 40.3418C249.449 41.4396 247.881 42.949 246.724 44.87C245.567 46.7606 244.958 48.9103 244.897 51.3192V64.5378C244.897 67.4041 245.461 69.9198 246.587 72.0847C247.713 74.2192 249.312 75.8811 251.382 77.0703C253.452 78.2595 255.918 78.8541 258.78 78.8541C260.759 78.8541 262.555 78.5797 264.169 78.0308C265.782 77.4819 267.167 76.6739 268.324 75.6066C269.481 74.5394 270.349 73.2282 270.927 71.6731L291.431 72.2677C290.579 76.8721 288.707 80.8819 285.814 84.2971C282.953 87.6817 279.193 90.3194 274.535 92.2099C269.877 94.07 264.488 95 258.369 95Z" fill="black"/>
<path d="M324.183 94.6798C319.007 94.6798 314.303 93.3381 310.072 90.6548C305.84 87.9714 302.461 83.9464 299.934 78.5797C297.407 73.213 296.144 66.5503 296.144 58.5917C296.144 50.3282 297.453 43.5283 300.071 38.1921C302.689 32.8559 306.114 28.9071 310.346 26.3457C314.608 23.7843 319.19 22.5036 324.091 22.5036C327.775 22.5036 330.926 23.144 333.544 24.4247C336.162 25.6749 338.324 27.291 340.029 29.273C341.734 31.255 343.028 33.3133 343.91 35.4478H344.367V0H366.698V93.6736H344.595V82.2845H343.91C342.967 84.4495 341.627 86.4773 339.892 88.3678C338.156 90.2584 335.98 91.783 333.362 92.9417C330.774 94.1005 327.714 94.6798 324.183 94.6798ZM331.946 77.2532C334.655 77.2532 336.969 76.4909 338.887 74.9663C340.805 73.4112 342.282 71.2309 343.317 68.4256C344.352 65.6203 344.869 62.3271 344.869 58.546C344.869 54.7039 344.352 51.3954 343.317 48.6206C342.312 45.8458 340.836 43.7113 338.887 42.2171C336.969 40.723 334.655 39.9759 331.946 39.9759C329.175 39.9759 326.831 40.7382 324.913 42.2629C322.995 43.7875 321.534 45.9372 320.529 48.7121C319.555 51.4869 319.068 54.7649 319.068 58.546C319.068 62.3271 319.57 65.6203 320.575 68.4256C321.58 71.2309 323.026 73.4112 324.913 74.9663C326.831 76.4909 329.175 77.2532 331.946 77.2532Z" fill="black"/>
<path d="M453.455 0H476.014V60.4213C476.014 67.4041 474.355 73.4874 471.037 78.6712C467.718 83.8244 463.091 87.819 457.154 90.6548C451.217 93.4601 444.322 94.8628 436.467 94.8628C428.521 94.8628 421.58 93.4601 415.643 90.6548C409.707 87.819 405.094 83.8244 401.807 78.6712C398.519 73.4874 396.875 67.4041 396.875 60.4213V0H419.479V58.4545C419.479 61.6867 420.18 64.5683 421.58 67.0992C423.011 69.6301 425.005 71.6121 427.562 73.0453C430.12 74.4784 433.088 75.195 436.467 75.195C439.846 75.195 442.8 74.4784 445.326 73.0453C447.884 71.6121 449.878 69.6301 451.309 67.0992C452.74 64.5683 453.455 61.6867 453.455 58.4545V0Z" fill="black"/>
<path d="M507 0V93.6736H484.395V0H507Z" fill="black"/>
</svg>